<svg xmlns="http://www.w3.org/2000/svg" xmlns:xlink="http://www.w3.org/1999/xlink" width="547" height="373" viewBox="0 0 747 513">
  <defs>
    <clipPath id="clip-path">
      <rect id="Rechteck_13" data-name="Rechteck 13" width="747" height="513" transform="translate(919 1316.362)" fill="#fff" stroke="#707070" stroke-width="1"/>
    </clipPath>
    <linearGradient id="linear-gradient" x1="0.5" y1="1" x2="0.5" gradientUnits="objectBoundingBox">
      <stop offset="0" stop-color="gray" stop-opacity="0.251"/>
      <stop offset="0.54" stop-color="gray" stop-opacity="0.122"/>
      <stop offset="1" stop-color="gray" stop-opacity="0.102"/>
    </linearGradient>
  </defs>
  <g id="Gruppe_maskieren_1" data-name="Gruppe maskieren 1" transform="translate(-919 -1316.362)" clip-path="url(#clip-path)">
    <g id="undraw_podcast_q6p7" transform="translate(957.515 1316.075)">
      <path id="Pfad_1" data-name="Pfad 1" d="M297.006,550.4c45.275-28.189,96.995-37.2,147.539-25.116C516.168,542.419,606.184,535.7,623.62,403.533,653.4,177.805,528.61,118.227,528.61,118.227s-82.984-7.819-132.054-37.588c-69.7-42.3-149.372-47.688-219.426-11.9-44.8,22.869-81.692,54.714-87.995,98.435-17.624,122.276,11.32,189.647-42.826,229.561s-7.872,149.5,33.638,145.707,135.309-45.414,171.86,2.8C264.79,562.34,281.215,560.238,297.006,550.4Z" transform="translate(-21.727 -45.048)" fill="#6c63ff" opacity="0.1"/>
      <rect id="Rechteck_14" data-name="Rechteck 14" width="186.811" height="14.541" transform="translate(303.283 99.293)" fill="#6c63ff" opacity="0.1"/>
      <rect id="Rechteck_15" data-name="Rechteck 15" width="186.811" height="14.541" transform="translate(303.283 162.084)" fill="#6c63ff" opacity="0.1"/>
      <rect id="Rechteck_16" data-name="Rechteck 16" width="186.811" height="14.541" transform="translate(303.283 227.518)" fill="#6c63ff" opacity="0.1"/>
      <rect id="Rechteck_17" data-name="Rechteck 17" width="11.749" height="37.674" transform="translate(319.732 61.619)" fill="#6c63ff" opacity="0.1"/>
      <rect id="Rechteck_18" data-name="Rechteck 18" width="11.749" height="2.644" transform="translate(319.732 67.568)" fill="#6c63ff" opacity="0.1"/>
      <rect id="Rechteck_19" data-name="Rechteck 19" width="11.749" height="2.644" transform="translate(319.732 88.057)" fill="#6c63ff" opacity="0.1"/>
      <rect id="Rechteck_20" data-name="Rechteck 20" width="11.749" height="37.674" transform="translate(337.356 61.619)" fill="#6c63ff" opacity="0.1"/>
      <rect id="Rechteck_21" data-name="Rechteck 21" width="11.749" height="2.644" transform="translate(337.356 67.568)" fill="#6c63ff" opacity="0.1"/>
      <rect id="Rechteck_22" data-name="Rechteck 22" width="11.749" height="2.644" transform="translate(337.356 88.057)" fill="#6c63ff" opacity="0.1"/>
      <rect id="Rechteck_23" data-name="Rechteck 23" width="11.749" height="37.674" transform="translate(354.979 61.619)" fill="#6c63ff" opacity="0.1"/>
      <rect id="Rechteck_24" data-name="Rechteck 24" width="11.749" height="2.644" transform="translate(354.979 67.568)" fill="#6c63ff" opacity="0.1"/>
      <rect id="Rechteck_25" data-name="Rechteck 25" width="11.749" height="2.644" transform="translate(354.979 88.057)" fill="#6c63ff" opacity="0.1"/>
      <rect id="Rechteck_26" data-name="Rechteck 26" width="11.749" height="37.674" transform="translate(372.603 61.619)" fill="#6c63ff" opacity="0.1"/>
      <rect id="Rechteck_27" data-name="Rechteck 27" width="11.749" height="2.644" transform="translate(372.603 67.568)" fill="#6c63ff" opacity="0.1"/>
      <rect id="Rechteck_28" data-name="Rechteck 28" width="11.749" height="2.644" transform="translate(372.603 88.057)" fill="#6c63ff" opacity="0.1"/>
      <rect id="Rechteck_29" data-name="Rechteck 29" width="11.749" height="37.674" transform="translate(390.227 61.619)" fill="#6c63ff" opacity="0.1"/>
      <rect id="Rechteck_30" data-name="Rechteck 30" width="11.749" height="2.644" transform="translate(390.227 67.568)" fill="#6c63ff" opacity="0.1"/>
      <rect id="Rechteck_31" data-name="Rechteck 31" width="11.749" height="2.644" transform="translate(390.227 88.057)" fill="#6c63ff" opacity="0.1"/>
      <rect id="Rechteck_32" data-name="Rechteck 32" width="11.749" height="37.674" transform="translate(407.85 61.619)" fill="#6c63ff" opacity="0.1"/>
      <rect id="Rechteck_33" data-name="Rechteck 33" width="11.749" height="2.644" transform="translate(407.85 67.568)" fill="#6c63ff" opacity="0.1"/>
      <rect id="Rechteck_34" data-name="Rechteck 34" width="11.749" height="2.644" transform="translate(407.85 88.057)" fill="#6c63ff" opacity="0.1"/>
      <rect id="Rechteck_35" data-name="Rechteck 35" width="11.749" height="37.674" transform="translate(425.474 61.619)" fill="#6c63ff" opacity="0.1"/>
      <rect id="Rechteck_36" data-name="Rechteck 36" width="11.749" height="2.644" transform="translate(425.474 67.568)" fill="#6c63ff" opacity="0.1"/>
      <rect id="Rechteck_37" data-name="Rechteck 37" width="11.749" height="2.644" transform="translate(425.474 88.057)" fill="#6c63ff" opacity="0.1"/>
      <path id="Pfad_94" data-name="Pfad 94" d="M1.727.607,13.771.018,12.093,36.85.048,37.439Z" transform="matrix(0.894, -0.448, 0.448, 0.894, 417.95, 195.007)" fill="#6c63ff" opacity="0.1"/>
      <path id="Pfad_95" data-name="Pfad 95" d="M.122.6,12.166.016,12.049,2.6,0,3.189Z" transform="matrix(0.894, -0.448, 0.448, 0.894, 421.758, 199.612)" fill="#6c63ff" opacity="0.1"/>
      <path id="Pfad_96" data-name="Pfad 96" d="M.122.6,12.166.016,12.049,2.6,0,3.189Z" transform="matrix(0.894, -0.448, 0.448, 0.894, 429.917, 217.93)" fill="#6c63ff" opacity="0.1"/>
      <rect id="Rechteck_41" data-name="Rechteck 41" width="11.749" height="37.674" transform="translate(319.732 125.07)" fill="#6c63ff" opacity="0.1"/>
      <rect id="Rechteck_42" data-name="Rechteck 42" width="11.749" height="2.644" transform="translate(319.732 131.019)" fill="#6c63ff" opacity="0.1"/>
      <rect id="Rechteck_43" data-name="Rechteck 43" width="11.749" height="2.644" transform="translate(319.732 151.508)" fill="#6c63ff" opacity="0.1"/>
      <rect id="Rechteck_44" data-name="Rechteck 44" width="11.749" height="37.674" transform="translate(337.356 125.07)" fill="#6c63ff" opacity="0.1"/>
      <rect id="Rechteck_45" data-name="Rechteck 45" width="11.749" height="2.644" transform="translate(337.356 131.019)" fill="#6c63ff" opacity="0.1"/>
      <rect id="Rechteck_46" data-name="Rechteck 46" width="11.749" height="2.644" transform="translate(337.356 151.508)" fill="#6c63ff" opacity="0.1"/>
      <rect id="Rechteck_47" data-name="Rechteck 47" width="11.749" height="37.674" transform="translate(354.979 125.07)" fill="#6c63ff" opacity="0.1"/>
      <rect id="Rechteck_48" data-name="Rechteck 48" width="11.749" height="2.644" transform="translate(354.979 131.019)" fill="#6c63ff" opacity="0.1"/>
      <rect id="Rechteck_49" data-name="Rechteck 49" width="11.749" height="2.644" transform="translate(354.979 151.508)" fill="#6c63ff" opacity="0.1"/>
      <rect id="Rechteck_50" data-name="Rechteck 50" width="11.749" height="37.674" transform="translate(428.411 125.07)" fill="#6c63ff" opacity="0.1"/>
      <rect id="Rechteck_51" data-name="Rechteck 51" width="11.749" height="2.644" transform="translate(428.411 131.019)" fill="#6c63ff" opacity="0.1"/>
      <rect id="Rechteck_52" data-name="Rechteck 52" width="11.749" height="2.644" transform="translate(428.411 151.508)" fill="#6c63ff" opacity="0.1"/>
      <rect id="Rechteck_53" data-name="Rechteck 53" width="11.749" height="37.674" transform="translate(446.035 125.07)" fill="#6c63ff" opacity="0.1"/>
      <rect id="Rechteck_54" data-name="Rechteck 54" width="11.749" height="2.644" transform="translate(446.035 131.019)" fill="#6c63ff" opacity="0.1"/>
      <rect id="Rechteck_55" data-name="Rechteck 55" width="11.749" height="2.644" transform="translate(446.035 151.508)" fill="#6c63ff" opacity="0.1"/>
      <rect id="Rechteck_56" data-name="Rechteck 56" width="11.749" height="37.674" transform="translate(463.659 125.07)" fill="#6c63ff" opacity="0.1"/>
      <rect id="Rechteck_57" data-name="Rechteck 57" width="11.749" height="2.644" transform="translate(463.659 131.019)" fill="#6c63ff" opacity="0.1"/>
      <rect id="Rechteck_58" data-name="Rechteck 58" width="11.749" height="2.644" transform="translate(463.659 151.508)" fill="#6c63ff" opacity="0.1"/>
      <rect id="Rechteck_59" data-name="Rechteck 59" width="11.749" height="37.674" transform="translate(319.732 189.843)" fill="#6c63ff" opacity="0.1"/>
      <rect id="Rechteck_60" data-name="Rechteck 60" width="11.749" height="2.644" transform="translate(319.732 195.792)" fill="#6c63ff" opacity="0.1"/>
      <rect id="Rechteck_61" data-name="Rechteck 61" width="11.749" height="2.644" transform="translate(319.732 216.282)" fill="#6c63ff" opacity="0.1"/>
      <rect id="Rechteck_62" data-name="Rechteck 62" width="11.749" height="37.674" transform="translate(337.356 189.843)" fill="#6c63ff" opacity="0.1"/>
      <rect id="Rechteck_63" data-name="Rechteck 63" width="11.749" height="2.644" transform="translate(337.356 195.792)" fill="#6c63ff" opacity="0.1"/>
      <rect id="Rechteck_64" data-name="Rechteck 64" width="11.749" height="2.644" transform="translate(337.356 216.282)" fill="#6c63ff" opacity="0.1"/>
      <rect id="Rechteck_65" data-name="Rechteck 65" width="11.749" height="37.674" transform="translate(354.979 189.843)" fill="#6c63ff" opacity="0.1"/>
      <rect id="Rechteck_66" data-name="Rechteck 66" width="11.749" height="2.644" transform="translate(354.979 195.792)" fill="#6c63ff" opacity="0.1"/>
      <rect id="Rechteck_67" data-name="Rechteck 67" width="11.749" height="2.644" transform="translate(354.979 216.282)" fill="#6c63ff" opacity="0.1"/>
      <rect id="Rechteck_68" data-name="Rechteck 68" width="11.749" height="37.674" transform="translate(372.603 189.843)" fill="#6c63ff" opacity="0.1"/>
      <rect id="Rechteck_69" data-name="Rechteck 69" width="11.749" height="2.644" transform="translate(372.603 195.792)" fill="#6c63ff" opacity="0.1"/>
      <rect id="Rechteck_70" data-name="Rechteck 70" width="11.749" height="2.644" transform="translate(372.603 216.282)" fill="#6c63ff" opacity="0.1"/>
      <rect id="Rechteck_71" data-name="Rechteck 71" width="11.749" height="37.674" transform="translate(390.227 189.843)" fill="#6c63ff" opacity="0.1"/>
      <rect id="Rechteck_72" data-name="Rechteck 72" width="11.749" height="2.644" transform="translate(390.227 195.792)" fill="#6c63ff" opacity="0.1"/>
      <rect id="Rechteck_73" data-name="Rechteck 73" width="11.749" height="2.644" transform="translate(390.227 216.282)" fill="#6c63ff" opacity="0.1"/>
      <rect id="Rechteck_74" data-name="Rechteck 74" width="11.749" height="37.674" transform="translate(407.85 189.843)" fill="#6c63ff" opacity="0.1"/>
      <rect id="Rechteck_75" data-name="Rechteck 75" width="11.749" height="2.644" transform="translate(407.85 195.792)" fill="#6c63ff" opacity="0.1"/>
      <rect id="Rechteck_76" data-name="Rechteck 76" width="11.749" height="2.644" transform="translate(407.85 216.282)" fill="#6c63ff" opacity="0.1"/>
      <path id="Pfad_2" data-name="Pfad 2" d="M581.67,116.246v34.317H569.921V113.728Q575.819,114.9,581.67,116.246Z" transform="translate(-126.823 -51.27)" fill="#6c63ff" opacity="0.1"/>
      <rect id="Rechteck_77" data-name="Rechteck 77" width="11.749" height="2.644" transform="translate(443.098 67.568)" fill="#6c63ff" opacity="0.1"/>
      <rect id="Rechteck_78" data-name="Rechteck 78" width="11.749" height="2.644" transform="translate(443.098 88.057)" fill="#6c63ff" opacity="0.1"/>
      <path id="Pfad_3" data-name="Pfad 3" d="M603.474,121.225v29.743H591.724V118.053c1.527.377,3.049.773,4.57,1.176Q599.9,120.181,603.474,121.225Z" transform="translate(-131.003 -51.662)" fill="#6c63ff" opacity="0.1"/>
      <path id="Pfad_4" data-name="Pfad 4" d="M603.474,121.344V122H591.724v-2.644h4.57Q599.9,120.3,603.474,121.344Z" transform="translate(-131.003 -51.78)" fill="#6c63ff" opacity="0.1"/>
      <rect id="Rechteck_79" data-name="Rechteck 79" width="11.749" height="2.644" transform="translate(460.721 88.057)" fill="#6c63ff" opacity="0.1"/>
      <g id="Gruppe_17" data-name="Gruppe 17" transform="translate(384.5 141.81)" opacity="0.1">
        <path id="Pfad_5" data-name="Pfad 5" d="M503.38,208.9a4.186,4.186,0,0,0-5.287,2.175,7.156,7.156,0,0,0,.076,6.2c1.128,2.287,3.448,5.288,7.843,5,3.73-.225,4.97-3.424,5.287-6.4a7.034,7.034,0,0,0-2.143-5.95,5.363,5.363,0,0,0-5.623-1.1Z" transform="translate(-497.425 -201.661)" fill="#6c63ff"/>
        <path id="Pfad_6" data-name="Pfad 6" d="M498.951,217.587a7.156,7.156,0,0,1-.076-6.2,4.191,4.191,0,0,1,5.287-2.175l.182-.073a5.2,5.2,0,0,1,4.189.106,5.236,5.236,0,0,0-4.94-.529l-.182.073a4.185,4.185,0,0,0-5.287,2.175,7.156,7.156,0,0,0,.076,6.2,9.081,9.081,0,0,0,4.03,4.29A9.515,9.515,0,0,1,498.951,217.587Z" transform="translate(-497.43 -201.65)" fill="#6c63ff" opacity="0.1"/>
        <path id="Pfad_7" data-name="Pfad 7" d="M502.518,210.813s1.322,1.17,4.529,0" transform="translate(-498.401 -201.875)" fill="#6c63ff" opacity="0.2"/>
        <path id="Pfad_8" data-name="Pfad 8" d="M502.162,201.474s2.262,6.9,2.074,8.7l1.792-.212s-3.019-6.048-2.262-8.493Z" transform="translate(-498.333 -201.029)" fill="#6c63ff"/>
        <path id="Pfad_9" data-name="Pfad 9" d="M502.162,201.474s2.262,6.9,2.074,8.7l1.792-.212s-3.019-6.048-2.262-8.493Z" transform="translate(-498.333 -201.029)" fill="#6c63ff" opacity="0.2"/>
        <path id="Pfad_10" data-name="Pfad 10" d="M511.942,202.011s-3.566-2.049-5.158-.357-1.839,6.021-1.839,6.021S510.755,208.561,511.942,202.011Z" transform="translate(-498.866 -200.985)" fill="#6c63ff"/>
        <path id="Pfad_11" data-name="Pfad 11" d="M511.942,202.011s-3.566-2.049-5.158-.357-1.839,6.021-1.839,6.021S510.755,208.561,511.942,202.011Z" transform="translate(-498.866 -200.985)" fill="#6c63ff" opacity="0.1"/>
        <path id="Pfad_12" data-name="Pfad 12" d="M504.938,207.777s.934-5.023,7-5.671" transform="translate(-498.865 -201.086)" fill="#6c63ff"/>
      </g>
      <g id="Gruppe_18" data-name="Gruppe 18" transform="translate(459.694 207.244)" opacity="0.1">
        <path id="Pfad_13" data-name="Pfad 13" d="M596.41,280.853a4.186,4.186,0,0,0-5.287,2.175,7.156,7.156,0,0,0,.076,6.2c1.128,2.287,3.448,5.288,7.842,5,3.73-.225,4.97-3.424,5.287-6.4a7.034,7.034,0,0,0-2.143-5.95,5.364,5.364,0,0,0-5.623-1.1Z" transform="translate(-590.454 -273.614)" fill="#6c63ff"/>
        <path id="Pfad_14" data-name="Pfad 14" d="M591.98,289.54a7.156,7.156,0,0,1-.076-6.2,4.192,4.192,0,0,1,5.287-2.175l.182-.073a5.2,5.2,0,0,1,4.189.106,5.237,5.237,0,0,0-4.941-.529l-.182.073a4.186,4.186,0,0,0-5.287,2.175,7.156,7.156,0,0,0,.076,6.2,9.081,9.081,0,0,0,4.03,4.29,9.515,9.515,0,0,1-3.278-3.867Z" transform="translate(-590.459 -273.602)" fill="#6c63ff" opacity="0.1"/>
        <path id="Pfad_15" data-name="Pfad 15" d="M595.547,282.765s1.322,1.17,4.529,0" transform="translate(-591.43 -273.827)" fill="#6c63ff" opacity="0.2"/>
        <path id="Pfad_16" data-name="Pfad 16" d="M595.191,273.426s2.262,6.9,2.074,8.7l1.792-.211s-3.02-6.048-2.262-8.493Z" transform="translate(-591.362 -272.981)" fill="#6c63ff"/>
        <path id="Pfad_17" data-name="Pfad 17" d="M595.191,273.426s2.262,6.9,2.074,8.7l1.792-.211s-3.02-6.048-2.262-8.493Z" transform="translate(-591.362 -272.981)" fill="#6c63ff" opacity="0.2"/>
        <path id="Pfad_18" data-name="Pfad 18" d="M604.971,273.963s-3.566-2.049-5.158-.357-1.839,6.021-1.839,6.021S603.785,280.513,604.971,273.963Z" transform="translate(-591.896 -272.937)" fill="#6c63ff"/>
        <path id="Pfad_19" data-name="Pfad 19" d="M604.971,273.963s-3.566-2.049-5.158-.357-1.839,6.021-1.839,6.021S603.785,280.513,604.971,273.963Z" transform="translate(-591.896 -272.937)" fill="#6c63ff" opacity="0.1"/>
        <path id="Pfad_20" data-name="Pfad 20" d="M597.968,279.729s.934-5.023,7-5.671" transform="translate(-591.894 -273.039)" fill="#6c63ff"/>
      </g>
      <ellipse id="Ellipse_1" data-name="Ellipse 1" cx="31.723" cy="12.69" rx="31.723" ry="12.69" transform="translate(552.805 391.057)" opacity="0.1"/>
      <path id="Pfad_21" data-name="Pfad 21" d="M741.82,467.148s18.1-69.129-3.4-120.015a121.606,121.606,0,0,1-7.848-68.5,201.119,201.119,0,0,1,8.618-32.155" transform="translate(-157.269 -63.296)" fill="none" stroke="#535461" stroke-miterlimit="10" stroke-width="1.454"/>
      <path id="Pfad_22" data-name="Pfad 22" d="M725.134,209.583c0,8.473,13.635,33.048,13.635,33.048S752.4,218.063,752.4,209.583s-6.1-15.341-13.635-15.341S725.134,201.11,725.134,209.583Z" transform="translate(-156.58 -58.564)" fill="#6c63ff"/>
      <path id="Pfad_23" data-name="Pfad 23" d="M696.722,260.353c4.112,7.112,27.4,19.4,27.4,19.4s-.423-28.963-4.518-36.075-12.539-9.156-18.866-4.551-8.137,14.108-4.045,21.226Z" transform="translate(-150.708 -62.407)" fill="#6c63ff"/>
      <path id="Pfad_24" data-name="Pfad 24" d="M696.668,348.009c6.726,3.814,32.363,1.176,32.363,1.176s-13.359-24.759-20.085-28.573-14.924-.774-18.314,6.791S689.944,344.194,696.668,348.009Z" transform="translate(-149.685 -69.862)" fill="#6c63ff"/>
      <path id="Pfad_25" data-name="Pfad 25" d="M713.125,414.661c6.057,5.036,31.723,7.317,31.723,7.317s-9.446-26.947-15.5-31.983-14.593-3.6-19.072,3.209S707.071,409.622,713.125,414.661Z" transform="translate(-153.218 -76.024)" fill="#6c63ff"/>
      <path id="Pfad_26" data-name="Pfad 26" d="M759.33,283.223c-5.4,5.9-30.548,12.016-30.548,12.016s6.162-28.123,11.561-34.026a12.591,12.591,0,0,1,19.28.317,16.728,16.728,0,0,1-.282,21.693Z" transform="translate(-157.279 -64.238)" fill="#6c63ff"/>
      <path id="Pfad_27" data-name="Pfad 27" d="M776.532,360.982c-6.726,3.814-32.363,1.176-32.363,1.176s13.359-24.759,20.085-28.573,14.924-.774,18.314,6.791S783.256,357.168,776.532,360.982Z" transform="translate(-160.229 -71.038)" fill="#6c63ff"/>
      <path id="Pfad_28" data-name="Pfad 28" d="M783.472,439.314c-6.057,5.036-31.723,7.317-31.723,7.317s9.446-26.947,15.5-31.983,14.592-3.6,19.07,3.212,3.2,16.418-2.855,21.456Z" transform="translate(-161.682 -78.258)" fill="#6c63ff"/>
      <ellipse id="Ellipse_2" data-name="Ellipse 2" cx="31.723" cy="12.69" rx="31.723" ry="12.69" transform="translate(473.851 354.572)" opacity="0.1"/>
      <path id="Pfad_29" data-name="Pfad 29" d="M644.172,440.581s8.477-32.387-1.592-56.227a56.96,56.96,0,0,1-3.678-32.1,94.253,94.253,0,0,1,4.042-15.063" transform="translate(-139.885 -71.514)" fill="none" stroke="#535461" stroke-miterlimit="10" stroke-width="1.454"/>
      <path id="Pfad_30" data-name="Pfad 30" d="M636.348,319.908c0,3.966,6.386,15.479,6.386,15.479s6.386-11.514,6.386-15.479-2.86-7.188-6.389-7.188-6.388,3.218-6.388,7.188Z" transform="translate(-139.557 -69.297)" fill="#6c63ff"/>
      <path id="Pfad_31" data-name="Pfad 31" d="M623.046,343.692c1.915,3.3,12.842,9.088,12.842,9.088s-.2-13.569-2.115-16.9a5.977,5.977,0,0,0-8.835-2.128A7.747,7.747,0,0,0,623.046,343.692Z" transform="translate(-136.811 -71.097)" fill="#6c63ff"/>
      <path id="Pfad_32" data-name="Pfad 32" d="M623.025,384.76c3.149,1.785,15.162.555,15.162.555s-6.256-11.6-9.4-13.391-6.992-.362-8.58,3.182a7.632,7.632,0,0,0,2.829,9.653Z" transform="translate(-136.333 -74.59)" fill="#6c63ff"/>
      <path id="Pfad_33" data-name="Pfad 33" d="M630.714,415.989c2.837,2.36,14.863,3.43,14.863,3.43s-4.429-12.624-7.261-14.984a5.938,5.938,0,0,0-8.935,1.507A7.792,7.792,0,0,0,630.72,416Z" transform="translate(-137.982 -77.478)" fill="#6c63ff"/>
      <path id="Pfad_34" data-name="Pfad 34" d="M652.372,354.411c-2.532,2.763-14.322,5.631-14.322,5.631s2.89-13.179,5.416-15.942a5.9,5.9,0,0,1,9.032.149,7.836,7.836,0,0,1-.132,10.162Z" transform="translate(-139.884 -71.955)" fill="#6c63ff"/>
      <path id="Pfad_35" data-name="Pfad 35" d="M660.451,390.843c-3.149,1.785-15.162.555-15.162.555s6.256-11.6,9.4-13.391,6.992-.362,8.58,3.182a7.632,7.632,0,0,1-2.829,9.653Z" transform="translate(-141.272 -75.141)" fill="#6c63ff"/>
      <path id="Pfad_36" data-name="Pfad 36" d="M663.669,427.515c-2.837,2.36-14.863,3.43-14.863,3.43s4.429-12.624,7.261-14.984a5.937,5.937,0,0,1,8.935,1.5,7.792,7.792,0,0,1-1.333,10.053Z" transform="translate(-141.947 -78.521)" fill="#6c63ff"/>
      <path id="Pfad_37" data-name="Pfad 37" d="M697,482.893,515.1,374.332H476.957l9.869-92.427a16.707,16.707,0,0,0-2.9-11.411,13.277,13.277,0,0,0-9.27-5.661l-1.022.046h-.1l-138.763,2.373c-7.338-.584-13.965,4.915-15.638,12.974l-6.462,53.114-.934-1.606-.452-.773c3.413-2.5-3.319-17.35-9.023-28.421l-.517-1c3.619-1.7,7.637-3.3,7.637-3.3l-8.9-6.253a270.615,270.615,0,0,0-16.907-24.158c5.875-41.389-6.533-89.228-6.679-89.889l-.329.1a21.642,21.642,0,0,0,2.62-10.443h0a20.989,20.989,0,0,0-5.945-14.858c-.347-3.543-.846-7.191-1.563-11.031h0c-.129-.661-.264-1.395-.411-2.1-.67-3.3-1.345-6.61-2.232-9.848a53.54,53.54,0,0,0-2.285-6.748,37.622,37.622,0,0,0-24.614-21.673c-5.375-1.428-10.886.787-15.9-.271-2.526-.522-4.788-3.252-7.249-4.356a41.407,41.407,0,0,0-9.8-2.644c-4.112-.773-8.383-1.54-12.478-.535-6.756,1.652-11.908,7.812-15.7,14.316s-6.732,13.708-11.414,19.432c-3.131,3.833-6.985,6.914-9.775,11.064-4.112,6.107-5.54,13.88-6.862,21.428-1.633,9.286-3.266,18.7-3.231,28.137,0,2.188.029,4.382.2,6.576.429,5.631,1.569,11.183,1.839,16.821,0,.608.041,1.216.053,1.824-.059,10.317-2.767,20.489-5.457,30.4-.858,3.153-1.727,6.332-2.743,9.438-5.4.516-10.574,1.732-14.516,4.124-14.4,8.672-25.49,28.011-25.49,28.011L82.546,306.915s8.318,4.369,12.2,11.857a5.325,5.325,0,0,0,.476.747l-.305.793L82.546,352.461a28.132,28.132,0,0,0,19.386,4.99,12.885,12.885,0,0,1,5.64.463c0,.4-.035.8-.047,1.223-.711,18.394-1.087,58.7,7.373,85.924L95.781,470.176,57.6,482.9l-1.662,33.048H698.111ZM146.267,359.658a21.572,21.572,0,0,1,4.764,1.705v22.975a163.405,163.405,0,0,0-4.371-23.345C146.537,360.544,146.426,360.1,146.267,359.658Zm110.26,44.211v-.238a13.109,13.109,0,0,1,.288-2.379,7.024,7.024,0,0,1,1.533-3.212c1.416-1.593,2.878-3.3,4.341-5.162a24.784,24.784,0,0,0,3.842,7.145c1.88,2.36,6.08,4.481,11.978,6.4a192.941,192.941,0,0,0-21.983-2.551Zm47.942-3.173-19.2,6.391c-9.076-2.287-15.532-4.9-17.923-7.931a23.943,23.943,0,0,1-3.83-7.376c6.85-8.936,13.512-20.959,15.039-37.377.041-.43.071-.872.106-1.322a38.548,38.548,0,0,0,5.875-4.627l.347.912a117.79,117.79,0,0,0,21.53,35.414Zm-28.456-221.7c1.51,6.127,11.749,49.505,6.615,87.649a67,67,0,0,0-9.311-9.617,17.781,17.781,0,0,0-2.144-1.434c-.64-6.993-.934-14.243-.981-21.428.059-8.9.529-17.72,1.175-26.114.7-8.9,1.521-17.383,2.033-25.731A19.426,19.426,0,0,0,276.012,178.994Z" transform="translate(-28.285 -49.396)" fill="url(#linear-gradient)"/>
      <path id="Pfad_38" data-name="Pfad 38" d="M14.428,0h5.011V39H14.428C6.46,39,0,31.728,0,22.763V16.273a17.325,17.325,0,0,1,4.213-11.5A13.668,13.668,0,0,1,14.428,0Z" transform="translate(252.785 140.279) rotate(180)" fill="#dfe6f5"/>
      <rect id="Rechteck_80" data-name="Rechteck 80" width="8.506" height="38.963" rx="4.253" transform="translate(237.6 140.279) rotate(180)" fill="#535461"/>
      <g id="Gruppe_19" data-name="Gruppe 19" transform="translate(229.093 101.283)" opacity="0.1">
        <path id="Pfad_39" data-name="Pfad 39" d="M14.428,0h5.011V39H14.428C6.46,39,0,31.728,0,22.763V16.273a17.325,17.325,0,0,1,4.213-11.5A13.668,13.668,0,0,1,14.428,0Z" transform="translate(23.692 38.996) rotate(180)"/>
        <rect id="Rechteck_81" data-name="Rechteck 81" width="8.506" height="38.963" rx="4.253" transform="translate(8.506 38.996) rotate(180)"/>
      </g>
      <rect id="Rechteck_82" data-name="Rechteck 82" width="87.584" height="102.216" transform="translate(153.159 121.924)" fill="#865a61"/>
      <rect id="Rechteck_83" data-name="Rechteck 83" width="87.584" height="102.216" transform="translate(153.159 107.846)" opacity="0.1"/>
      <path id="Pfad_40" data-name="Pfad 40" d="M288.927,265.385l-5.287,43.226-2.491,20.318-.916,7.462-7.678,16.841-14.1,30.906-27.2,3.675L183.414,311.9s-25.049-53.861,13.036-48.97c21.354,2.75,26.435-18.758,26.817-38.183a161.992,161.992,0,0,0-2.35-29.148L259,216.415q-1.328,6.96-2,12.789c-1.856,15.9-.317,25.817,2.9,31.825C268.472,277.03,288.927,265.385,288.927,265.385Z" transform="translate(-51.175 -58.687)" fill="#fdc2cc"/>
      <path id="Pfad_41" data-name="Pfad 41" d="M269.821,216.423q-1.328,6.96-2,12.789a39.827,39.827,0,0,1-33.743-4.448,161.991,161.991,0,0,0-2.35-29.148Z" transform="translate(-61.987 -58.688)" opacity="0.1"/>
      <ellipse id="Ellipse_3" data-name="Ellipse 3" cx="44.065" cy="49.578" rx="44.065" ry="49.578" transform="translate(149.622 72.042)" fill="#fdc2cc"/>
      <path id="Pfad_42" data-name="Pfad 42" d="M291.079,476.433,109.92,492.362l29.373-38.56c31.517-21.666,31.247-51.448,27.058-69.922a77.531,77.531,0,0,0-5.845-16.993l62.617.33h.529l5.146,13.16.235.595,3.83,9.789,13.053-26.319,4.541-8.235,2.538-4.627s37.538-9.8,38.079,15.3a75.428,75.428,0,0,1-.3,8.632c-1.868,20.2-11.69,33.629-19.827,42.783C261.7,428.693,291.079,476.433,291.079,476.433Z" transform="translate(-38.635 -72.646)" fill="#ec7580"/>
      <path id="Pfad_43" data-name="Pfad 43" d="M274.826,422.779c-1.328,5.949,2.021,16.173,6.462,26.213-21.3,2.578-44.647,1.236-44.647,1.236l-23.962,7.35-67.452,22.036A60.7,60.7,0,0,1,138,463.91l6.685-8.777c21.037-14.462,27.91-32.539,28.915-48.454a76.269,76.269,0,0,0-1.856-21.474,77.532,77.532,0,0,0-5.839-16.98l62.617.33h.529l5.146,13.16.235.595,3.83,9.789,13.053-26.319,4.529-8.235,2.538-4.627s37.538-9.809,38.085,15.308a75.421,75.421,0,0,1-.3,8.632c-1.868,20.2-11.69,33.629-19.827,42.783A6.894,6.894,0,0,0,274.826,422.779Z" transform="translate(-44.017 -72.767)" fill="#ec7580"/>
      <path id="Pfad_44" data-name="Pfad 44" d="M454.371,453.729c-1.087,14.686-32.639-4.9-32.639-4.9s-9.793-3.675-42.978-27.542c-16.848-12.115-30.134-29.567-38.185-50.16a78.072,78.072,0,0,1-3.178-9.822l22.864-18.989,6.668,11.467,22.165,38.1,32.639,24.455S455.458,439.042,454.371,453.729Z" transform="translate(-82.244 -71.978)" fill="#fdc2cc"/>
      <path id="Pfad_45" data-name="Pfad 45" d="M671.019,462.328H43.775l62.793-20.906,156.98-52.268,100.1-33.332H492.585Z" transform="translate(-8.395 -32.222)" fill="#cbcdda"/>
      <path id="Pfad_46" data-name="Pfad 46" d="M43.387,472.938l-1.633,32.44H671.718l-1.087-32.44Z" transform="translate(-8.007 -42.832)" fill="#cbcdda"/>
      <path id="Pfad_47" data-name="Pfad 47" d="M43.387,472.938l-1.633,32.44H671.718l-1.087-32.44Z" transform="translate(-8.007 -42.832)" opacity="0.1"/>
      <path id="Pfad_48" data-name="Pfad 48" d="M268.769,466.025,401.352,450.7l1.633,29.379-60.6,6.762a35.322,35.322,0,0,1-12.466-1.091l-61.26-17.806a.974.974,0,0,1-.647-1.01.938.938,0,0,1,.759-.907Z" transform="translate(-68.942 -81.796)" fill="#535461"/>
      <path id="Pfad_49" data-name="Pfad 49" d="M268.769,466.025,401.352,450.7l1.633,29.379-60.6,6.762a35.322,35.322,0,0,1-12.466-1.091l-61.26-17.806a.974.974,0,0,1-.647-1.01.938.938,0,0,1,.759-.907Z" transform="translate(-68.942 -81.796)" opacity="0.2"/>
      <path id="Pfad_50" data-name="Pfad 50" d="M268.765,465.349,402.44,450.022l1.633,29.379-60.608,5.526a35.32,35.32,0,0,1-12.46-1.071l-62.353-16.583a.971.971,0,0,1-.663-1.014A.935.935,0,0,1,268.765,465.349Z" transform="translate(-68.939 -81.735)" fill="#535461"/>
      <path id="Pfad_51" data-name="Pfad 51" d="M308.064,467.246l70.683-8.1.864,15.532L347.564,477.6a18.677,18.677,0,0,1-6.591-.575l-32.968-8.771a.513.513,0,0,1-.344-.533.494.494,0,0,1,.4-.478Z" transform="translate(-76.544 -82.561)" fill="#fff" opacity="0.3"/>
      <path id="Pfad_52" data-name="Pfad 52" d="M366.927,353.8a2.1,2.1,0,0,1-2.315.773c-10.88-1.837-23.393,15.916-23.393,15.916s-.223.238-.629.661a78.067,78.067,0,0,1-3.178-9.822l22.846-19.009Z" transform="translate(-82.248 -71.978)" opacity="0.1"/>
      <path id="Pfad_53" data-name="Pfad 53" d="M323.05,376.815c-5.117,3.206-12.16,5.506-17.653-.661-9.487-10.674-26.118-9.253-27.152-9.187,1.7-.264,3.2-4.19,4.482-9.452l2.538-4.627s37.538-9.782,38.085,15.334A75.42,75.42,0,0,1,323.05,376.815Z" transform="translate(-70.905 -72.766)" opacity="0.1"/>
      <path id="Pfad_54" data-name="Pfad 54" d="M303.228,319.868l-3.407,27.76-7.678,16.841a41.814,41.814,0,0,0-14.581-1.54c5.41-.839,8.906-38.877,8.906-38.877l.311-.079Z" transform="translate(-70.774 -69.944)" opacity="0.1"/>
      <path id="Pfad_55" data-name="Pfad 55" d="M353.269,350.425c-10.88-1.837-23.392,15.916-23.392,15.916s-14.686,15.916-24.479,4.9c-9.487-10.674-26.118-9.253-27.152-9.187,5.41-.846,8.906-38.884,8.906-38.884l.311-.079,52.207-13.06s3.113,5.367,6.626,12.2C352.634,334.542,360.271,351.608,353.269,350.425Z" transform="translate(-70.905 -69.053)" fill="#ec7580"/>
      <path id="Pfad_56" data-name="Pfad 56" d="M341.876,325.943c.546,1.223-8.706,7.343-13.053,5.506s-15.233,7.931-16.32,9.181-25.566-1.837-25.566-1.837a144.488,144.488,0,0,0,2.191-15.7l52.207-13.06s3.114,5.367,6.627,12.2C344.713,323.729,341.612,325.342,341.876,325.943Z" transform="translate(-72.571 -69.053)" opacity="0.1"/>
      <path id="Pfad_57" data-name="Pfad 57" d="M308.777,271.9,303.49,315.13,301,335.448c-7.3-.615-16.143-1.719-16.143-1.719s9.247-43.457-5.986-66.1a8.932,8.932,0,0,0,.9-.066C288.322,283.55,308.777,271.9,308.777,271.9Z" transform="translate(-71.025 -65.206)" opacity="0.1"/>
      <path id="Pfad_58" data-name="Pfad 58" d="M279.531,267.594s27.746-2.445,38.625,6.12,26.659,34.277,26.659,34.277l8.706,6.12s-13.6,5.506-13.053,6.735-8.706,7.343-13.053,5.506-15.233,7.931-16.32,9.181-25.566-1.837-25.566-1.837S294.764,290.238,279.531,267.594Z" transform="translate(-71.152 -65.179)" fill="#ec7580"/>
      <path id="Pfad_59" data-name="Pfad 59" d="M486.046,429.129c-6.3-.172-154.354-4.494-168.488-22.234-15.051-18.89-.441-73.319,11.861-112.619,13.388-42.783-2.573-104.219-2.732-104.919l1.052-.311c.164.707,16.208,62.5,2.708,105.633-19.133,61.145-23.087,97.583-12.078,111.4,13.829,17.35,166.168,21.811,167.707,21.811Z" transform="translate(-77.215 -58.093)" fill="#dfe6f5"/>
      <path id="Pfad_60" data-name="Pfad 60" d="M393,285.112l136.959-2.34a13.032,13.032,0,0,1,9.076,5.564,16.392,16.392,0,0,1,2.831,11.185L526.328,445.063c-.767,7.216-6.012,12.781-12.46,13.219l-139.985,9.749a12.648,12.648,0,0,1-10.642-4.841,16.305,16.305,0,0,1-3.375-12.344l18.587-152.957c1.035-7.948,7.441-13.575,14.545-12.776Z" transform="translate(-86.526 -66.584)" fill="#535461"/>
      <path id="Pfad_61" data-name="Pfad 61" d="M393,285.112l136.959-2.34a13.032,13.032,0,0,1,9.076,5.564,16.392,16.392,0,0,1,2.831,11.185L526.328,445.063c-.767,7.216-6.012,12.781-12.46,13.219l-139.985,9.749a12.648,12.648,0,0,1-10.642-4.841,16.305,16.305,0,0,1-3.375-12.344l18.587-152.957c1.035-7.948,7.441-13.575,14.545-12.776Z" transform="translate(-86.526 -66.584)" opacity="0.2"/>
      <path id="Pfad_62" data-name="Pfad 62" d="M394.345,285.112l136.959-2.34a13.026,13.026,0,0,1,9.092,5.555,16.391,16.391,0,0,1,2.839,11.193L527.7,445.063c-.767,7.216-6.012,12.781-12.46,13.219l-140,9.749a12.648,12.648,0,0,1-10.642-4.841,16.305,16.305,0,0,1-3.375-12.344l18.587-152.957c1.035-7.945,7.438-13.571,14.54-12.776Z" transform="translate(-86.785 -66.584)" fill="#535461"/>
      <ellipse id="Ellipse_4" data-name="Ellipse 4" cx="6.527" cy="7.343" rx="6.527" ry="7.343" transform="translate(368.044 293.917)" fill="#fff" opacity="0.3"/>
      <path id="Pfad_63" data-name="Pfad 63" d="M281.288,454.542c-21.3,2.578-44.647,1.236-44.647,1.236l-23.962,7.343-67.452,22.036a60.7,60.7,0,0,1-7.232-15.7l6.685-8.777c21.037-14.462,27.91-32.539,28.915-48.454,1.8,15.83,2.1,30.086,2.1,30.086l27.2-3.06,39.518-10.575a31.913,31.913,0,0,1,8.307-1.091c5.146,0,14.3.126,24.086.72C273.5,434.258,276.847,444.489,281.288,454.542Z" transform="translate(-44.017 -78.31)" opacity="0.1"/>
      <path id="Pfad_64" data-name="Pfad 64" d="M312.143,448.89c-12.513,16.524-76.7,12.855-76.7,12.855L211.5,469.089l-67.458,22.029c-.294-.43-.587-.866-.858-1.322l156.986-52.268C310.193,439.8,316.344,443.345,312.143,448.89Z" transform="translate(-45.012 -80.603)" opacity="0.1"/>
      <path id="Pfad_65" data-name="Pfad 65" d="M308.794,441.2c-12.513,16.524-76.7,12.855-76.7,12.855L208.152,461.4l-67.458,22.036c-15.861-23.133-15.509-78.263-14.645-100.564.235-5.988.5-9.61.5-9.61s22.846-15.916,33.185,0a43.341,43.341,0,0,1,4.7,11.4c6,21.21,6.732,55.923,6.732,55.923l27.2-3.06,39.518-10.575a31.934,31.934,0,0,1,8.312-1.091C262.573,425.91,319.533,427.02,308.794,441.2Z" transform="translate(-41.663 -74.14)" fill="#fdc2cc"/>
      <path id="Pfad_66" data-name="Pfad 66" d="M164.507,384.667c-3.472-.846-7.684-.661-13.394,2.062-11.426,5.506-20.126,4.283-20.126,4.283s.7-6.246-4.852-8.143c.235-5.988.5-9.61.5-9.61s22.846-15.916,33.185,0A43.716,43.716,0,0,1,164.507,384.667Z" transform="translate(-41.743 -74.14)" opacity="0.1"/>
      <path id="Pfad_67" data-name="Pfad 67" d="M241.033,384.008h0c-.364.086-5.258,1.124-14.686-1.229-9.793-2.445-13.6,2.446-19.039,4.9s-19.556,3.675-25.02,1.229c-1.287-.582-2.579-1.322-3.948-1.983a77.551,77.551,0,0,0-5.822-16.986l62.617.33,5.675,13.16Z" transform="translate(-50.636 -74.48)" opacity="0.1"/>
      <path id="Pfad_68" data-name="Pfad 68" d="M226.314,378.671s-4.893,1.223-14.686-1.223-13.6,2.445-19.039,4.9S173,386.02,167.563,383.568s-10.88-7.343-22.323-1.837-20.126,4.283-20.126,4.283,1.087-9.8-10.333-8.592a27.759,27.759,0,0,1-19.039-4.9l12.137-31.541,3.642-9.471,91.02-7h.435Z" transform="translate(-35.916 -70.365)" fill="#ec7580"/>
      <path id="Pfad_69" data-name="Pfad 69" d="M214.516,349.3c-5.986-11.018-37.538-1.223-37.538-1.223s-15.233,4.9-18.5-4.283-26.624-3.087-26.624-3.087-16.948,7.151-21.049.291l3.642-9.471,90.979-7.013Z" transform="translate(-38.805 -70.365)" opacity="0.1"/>
      <path id="Pfad_70" data-name="Pfad 70" d="M185.548,272.085s-29.919-6.735-44.059,1.837-25.02,27.542-25.02,27.542L95.791,322.886s8.16,4.283,11.966,11.626,21.219,0,21.219,0,23.392-6.12,26.659,3.06,18.5,4.283,18.5,4.283,31.552-9.8,37.538,1.223Z" transform="translate(-35.926 -65.388)" fill="#ec7580"/>
      <path id="Pfad_71" data-name="Pfad 71" d="M230.386,99.783c-4.053-.767-8.224-1.514-12.243-.529-6.626,1.619-11.679,7.667-15.4,14.039s-6.609,13.444-11.2,19.055c-3.072,3.761-6.85,6.781-9.587,10.853-4.03,5.995-5.434,13.642-6.732,21.018-1.9,10.826-3.813,21.811-2.973,32.829.423,5.526,1.539,10.965,1.8,16.524.535,11.163-2.4,22.122-5.287,32.816-2,7.389-4.071,14.918-8.031,21.23-2.626,4.184-5.992,7.687-9.2,11.315a6.432,6.432,0,0,0-1.686,2.783c-.693,3.159,2.7,5.288,5.287,6.715,7.925,4.448,13.124,13.126,19.286,20.278s14.98,13.292,23.457,10.423c2.514-.853,4.9-2.472,7.519-2.419a15.285,15.285,0,0,1,5.129,1.5A34.651,34.651,0,0,0,223.5,320.66a4.551,4.551,0,0,0,2.814-.661c1.31-1,1.563-3.007,1.692-4.779.828-11.117,1.651-22.274,1.093-33.411-1.263-25.222-21.977-54.4-14.1-78.065,3.425-10.324,9.687-19.207,13.153-29.511,3.654-10.859,16.537-19.677,19.092-30.933.288-1.269.681-2.644,1.668-3.3,1.357-.939,3.125-.119,4.435.9,7.414,5.75,9.828,16.563,12.525,26.227a174.425,174.425,0,0,0,8.054,22.7c1.762,3.966,5.546,8.559,8.859,6.153-1.668,16.709-11.3,31.3-13.482,47.932-2.127,16.207,3.025,32.77,1.028,48.99a52.947,52.947,0,0,1-12.013,27.76,53.216,53.216,0,0,0,22.223.225c7.455-1.514,15.432-5.486,18.123-13.457,2.937-8.771-1.6-18.183-3.912-27.2-5.54-21.673-5.111-47.3-3.354-69.77,1.809-23.1,4.523-43.325-.076-65.93-1.128-5.545-2.273-11.137-4.435-16.279a36.91,36.91,0,0,0-24.15-21.263c-5.287-1.4-10.68.773-15.6-.258-2.479-.522-4.7-3.192-7.108-4.276A40.68,40.68,0,0,0,230.386,99.783Z" transform="translate(-46.274 -49.916)" opacity="0.1"/>
      <path id="Pfad_72" data-name="Pfad 72" d="M298.633,306.03c-2.691,7.971-10.668,11.943-18.129,13.457a53.326,53.326,0,0,1-22.223-.225,52.989,52.989,0,0,0,12.013-27.76c2-16.226-3.149-32.79-1.028-48.99,2.18-16.636,11.814-31.23,13.482-47.939-3.313,2.406-7.126-2.168-8.865-6.153a174.808,174.808,0,0,1-8.054-22.7c-2.7-9.663-5.111-20.49-12.525-26.227-1.31-1.018-3.078-1.837-4.435-.892-.993.661-1.381,2.056-1.668,3.3-2.55,11.236-15.438,20.066-19.086,30.926-3.472,10.3-9.734,19.168-13.159,29.511-7.848,23.662,12.865,52.836,14.1,78.058.552,11.137-.27,22.3-1.093,33.411-.135,1.778-.388,3.787-1.7,4.785a4.54,4.54,0,0,1-2.808.661,34.533,34.533,0,0,1-12.93-2.432,15.207,15.207,0,0,0-5.128-1.5c-2.62-.046-5.005,1.573-7.519,2.419-8.477,2.869-17.3-3.272-23.457-10.423s-11.373-15.817-19.292-20.238c-2.591-1.454-5.98-3.556-5.287-6.722a6.476,6.476,0,0,1,1.686-2.776c3.208-3.629,6.579-7.138,9.205-11.315,3.959-6.312,6.021-13.84,8.031-21.23,2.9-10.694,5.833-21.653,5.287-32.816-.258-5.532-1.375-10.972-1.8-16.524-.846-11,1.069-22,2.973-32.823,1.292-7.376,2.7-15.023,6.732-21.018,2.743-4.071,6.515-7.092,9.593-10.853,4.594-5.611,7.472-12.684,11.2-19.062s8.777-12.419,15.4-14.039c4.012-.985,8.189-.231,12.243.529A41.612,41.612,0,0,1,240,101.083c2.414,1.084,4.635,3.761,7.108,4.27,4.923,1.038,10.333-1.137,15.6.264a36.884,36.884,0,0,1,24.15,21.256,52.539,52.539,0,0,1,2.244,6.61c.869,3.173,1.533,6.418,2.191,9.656.141.661.276,1.375.405,2.056h0c4.024,21.521,1.428,37.192-.329,59.578s-2.185,52.38,3.349,74.027C297.03,287.841,301.594,297.26,298.633,306.03Z" transform="translate(-46.271 -49.794)" fill="#865a61"/>
      <path id="Pfad_73" data-name="Pfad 73" d="M256.31,369.6s4.353,7.931,4.353,13.464c0,0,3.266-13.464,5.986-13.464" transform="translate(-66.7 -74.449)" opacity="0.05"/>
      <path id="Pfad_74" data-name="Pfad 74" d="M231.137,368.683v40.4a31.643,31.643,0,0,1-5.6,18.183,29.351,29.351,0,0,1-1.991,2.525,24.117,24.117,0,0,1-37.01,0,29.348,29.348,0,0,1-1.991-2.525,31.643,31.643,0,0,1-5.6-18.183v-40.4a31.521,31.521,0,0,1,6.033-18.784,26.823,26.823,0,0,1,2.238-2.644c10.035-10.586,25.652-10.586,35.688,0,.211.212.417.443.623.661.587.661,1.1,1.322,1.616,1.983a31.531,31.531,0,0,1,6,18.784Z" transform="translate(-51.866 -71.706)" fill="#dfe6f5"/>
      <path id="Pfad_75" data-name="Pfad 75" d="M231.137,368.683v40.4a31.643,31.643,0,0,1-5.6,18.183,29.351,29.351,0,0,1-1.991,2.525,24.117,24.117,0,0,1-37.01,0,29.348,29.348,0,0,1-1.991-2.525,31.643,31.643,0,0,1-5.6-18.183v-40.4a31.521,31.521,0,0,1,6.033-18.784,26.823,26.823,0,0,1,2.238-2.644c10.035-10.586,25.652-10.586,35.688,0,.211.212.417.443.623.661.587.661,1.1,1.322,1.616,1.983a31.531,31.531,0,0,1,6,18.784Z" transform="translate(-51.866 -71.706)" opacity="0.1"/>
      <path id="Pfad_76" data-name="Pfad 76" d="M232.481,368.683v40.4a31.642,31.642,0,0,1-5.6,18.183,29.348,29.348,0,0,1-1.992,2.525,24.117,24.117,0,0,1-37.01,0,29.356,29.356,0,0,1-1.992-2.525,31.63,31.63,0,0,1-5.64-18.183v-40.4a31.521,31.521,0,0,1,6.033-18.784,26.822,26.822,0,0,1,2.238-2.644c10.035-10.586,25.652-10.586,35.688,0,.211.212.417.443.623.661.587.661,1.1,1.322,1.616,1.983A31.518,31.518,0,0,1,232.481,368.683Z" transform="translate(-52.117 -71.706)" fill="#dfe6f5"/>
      <ellipse id="Ellipse_5" data-name="Ellipse 5" cx="1.633" cy="1.837" rx="1.633" ry="1.837" transform="translate(141.186 274.941)" opacity="0.1"/>
      <ellipse id="Ellipse_6" data-name="Ellipse 6" cx="1.633" cy="1.837" rx="1.633" ry="1.837" transform="translate(141.186 281.061)" opacity="0.1"/>
      <ellipse id="Ellipse_7" data-name="Ellipse 7" cx="1.633" cy="1.837" rx="1.633" ry="1.837" transform="translate(141.186 287.182)" opacity="0.1"/>
      <ellipse id="Ellipse_8" data-name="Ellipse 8" cx="1.633" cy="1.837" rx="1.633" ry="1.837" transform="translate(141.186 293.302)" opacity="0.1"/>
      <ellipse id="Ellipse_9" data-name="Ellipse 9" cx="1.633" cy="1.837" rx="1.633" ry="1.837" transform="translate(141.186 299.423)" opacity="0.1"/>
      <ellipse id="Ellipse_10" data-name="Ellipse 10" cx="1.633" cy="1.837" rx="1.633" ry="1.837" transform="translate(141.186 305.543)" opacity="0.1"/>
      <ellipse id="Ellipse_11" data-name="Ellipse 11" cx="1.633" cy="1.837" rx="1.633" ry="1.837" transform="translate(141.186 311.663)" opacity="0.1"/>
      <ellipse id="Ellipse_12" data-name="Ellipse 12" cx="1.633" cy="1.837" rx="1.633" ry="1.837" transform="translate(141.186 317.79)" opacity="0.1"/>
      <ellipse id="Ellipse_13" data-name="Ellipse 13" cx="1.633" cy="1.837" rx="1.633" ry="1.837" transform="translate(141.186 323.911)" opacity="0.1"/>
      <ellipse id="Ellipse_14" data-name="Ellipse 14" cx="1.633" cy="1.837" rx="1.633" ry="1.837" transform="translate(141.186 330.031)" opacity="0.1"/>
      <ellipse id="Ellipse_15" data-name="Ellipse 15" cx="1.633" cy="1.837" rx="1.633" ry="1.837" transform="translate(141.186 336.152)" opacity="0.1"/>
      <ellipse id="Ellipse_16" data-name="Ellipse 16" cx="1.633" cy="1.837" rx="1.633" ry="1.837" transform="translate(141.186 342.272)" opacity="0.1"/>
      <ellipse id="Ellipse_17" data-name="Ellipse 17" cx="1.633" cy="1.837" rx="1.633" ry="1.837" transform="translate(141.186 348.392)" opacity="0.1"/>
      <ellipse id="Ellipse_18" data-name="Ellipse 18" cx="1.633" cy="1.837" rx="1.633" ry="1.837" transform="translate(141.186 354.513)" opacity="0.1"/>
      <path id="Pfad_77" data-name="Pfad 77" d="M190.389,349.275a1.866,1.866,0,0,1-.938,1.66,1.489,1.489,0,0,1-1.735-.246,26.823,26.823,0,0,1,2.238-2.644A1.925,1.925,0,0,1,190.389,349.275Z" transform="translate(-53.549 -72.497)" opacity="0.1"/>
      <ellipse id="Ellipse_19" data-name="Ellipse 19" cx="1.633" cy="1.837" rx="1.633" ry="1.837" transform="translate(133.573 281.061)" opacity="0.1"/>
      <ellipse id="Ellipse_20" data-name="Ellipse 20" cx="1.633" cy="1.837" rx="1.633" ry="1.837" transform="translate(133.573 287.182)" opacity="0.1"/>
      <ellipse id="Ellipse_21" data-name="Ellipse 21" cx="1.633" cy="1.837" rx="1.633" ry="1.837" transform="translate(133.573 293.302)" opacity="0.1"/>
      <ellipse id="Ellipse_22" data-name="Ellipse 22" cx="1.633" cy="1.837" rx="1.633" ry="1.837" transform="translate(133.573 299.423)" opacity="0.1"/>
      <ellipse id="Ellipse_23" data-name="Ellipse 23" cx="1.633" cy="1.837" rx="1.633" ry="1.837" transform="translate(133.573 305.543)" opacity="0.1"/>
      <ellipse id="Ellipse_24" data-name="Ellipse 24" cx="1.633" cy="1.837" rx="1.633" ry="1.837" transform="translate(133.573 311.663)" opacity="0.1"/>
      <ellipse id="Ellipse_25" data-name="Ellipse 25" cx="1.633" cy="1.837" rx="1.633" ry="1.837" transform="translate(133.573 317.79)" opacity="0.1"/>
      <ellipse id="Ellipse_26" data-name="Ellipse 26" cx="1.633" cy="1.837" rx="1.633" ry="1.837" transform="translate(133.573 323.911)" opacity="0.1"/>
      <ellipse id="Ellipse_27" data-name="Ellipse 27" cx="1.633" cy="1.837" rx="1.633" ry="1.837" transform="translate(133.573 330.031)" opacity="0.1"/>
      <ellipse id="Ellipse_28" data-name="Ellipse 28" cx="1.633" cy="1.837" rx="1.633" ry="1.837" transform="translate(133.573 336.152)" opacity="0.1"/>
      <ellipse id="Ellipse_29" data-name="Ellipse 29" cx="1.633" cy="1.837" rx="1.633" ry="1.837" transform="translate(133.573 342.272)" opacity="0.1"/>
      <ellipse id="Ellipse_30" data-name="Ellipse 30" cx="1.633" cy="1.837" rx="1.633" ry="1.837" transform="translate(133.573 348.392)" opacity="0.1"/>
      <path id="Pfad_78" data-name="Pfad 78" d="M190.287,436.712a1.827,1.827,0,0,1-1.11,1.738,29.351,29.351,0,0,1-1.992-2.525,1.583,1.583,0,0,1,1.832-1.012,1.8,1.8,0,0,1,1.269,1.8Z" transform="translate(-53.448 -80.362)" opacity="0.1"/>
      <ellipse id="Ellipse_31" data-name="Ellipse 31" cx="1.633" cy="1.837" rx="1.633" ry="1.837" transform="translate(148.806 274.941)" opacity="0.1"/>
      <ellipse id="Ellipse_32" data-name="Ellipse 32" cx="1.633" cy="1.837" rx="1.633" ry="1.837" transform="translate(148.806 281.061)" opacity="0.1"/>
      <ellipse id="Ellipse_33" data-name="Ellipse 33" cx="1.633" cy="1.837" rx="1.633" ry="1.837" transform="translate(148.806 287.182)" opacity="0.1"/>
      <ellipse id="Ellipse_34" data-name="Ellipse 34" cx="1.633" cy="1.837" rx="1.633" ry="1.837" transform="translate(148.806 293.302)" opacity="0.1"/>
      <ellipse id="Ellipse_35" data-name="Ellipse 35" cx="1.633" cy="1.837" rx="1.633" ry="1.837" transform="translate(148.806 299.423)" opacity="0.1"/>
      <ellipse id="Ellipse_36" data-name="Ellipse 36" cx="1.633" cy="1.837" rx="1.633" ry="1.837" transform="translate(148.806 305.543)" opacity="0.1"/>
      <ellipse id="Ellipse_37" data-name="Ellipse 37" cx="1.633" cy="1.837" rx="1.633" ry="1.837" transform="translate(148.806 311.663)" opacity="0.1"/>
      <ellipse id="Ellipse_38" data-name="Ellipse 38" cx="1.633" cy="1.837" rx="1.633" ry="1.837" transform="translate(148.806 317.79)" opacity="0.1"/>
      <ellipse id="Ellipse_39" data-name="Ellipse 39" cx="1.633" cy="1.837" rx="1.633" ry="1.837" transform="translate(148.806 323.911)" opacity="0.1"/>
      <ellipse id="Ellipse_40" data-name="Ellipse 40" cx="1.633" cy="1.837" rx="1.633" ry="1.837" transform="translate(148.806 330.031)" opacity="0.1"/>
      <ellipse id="Ellipse_41" data-name="Ellipse 41" cx="1.633" cy="1.837" rx="1.633" ry="1.837" transform="translate(148.806 336.152)" opacity="0.1"/>
      <ellipse id="Ellipse_42" data-name="Ellipse 42" cx="1.633" cy="1.837" rx="1.633" ry="1.837" transform="translate(148.806 342.272)" opacity="0.1"/>
      <ellipse id="Ellipse_43" data-name="Ellipse 43" cx="1.633" cy="1.837" rx="1.633" ry="1.837" transform="translate(148.806 348.392)" opacity="0.1"/>
      <ellipse id="Ellipse_44" data-name="Ellipse 44" cx="1.633" cy="1.837" rx="1.633" ry="1.837" transform="translate(148.806 354.513)" opacity="0.1"/>
      <ellipse id="Ellipse_45" data-name="Ellipse 45" cx="1.633" cy="1.837" rx="1.633" ry="1.837" transform="translate(156.419 274.941)" opacity="0.1"/>
      <ellipse id="Ellipse_46" data-name="Ellipse 46" cx="1.633" cy="1.837" rx="1.633" ry="1.837" transform="translate(156.419 281.061)" opacity="0.1"/>
      <ellipse id="Ellipse_47" data-name="Ellipse 47" cx="1.633" cy="1.837" rx="1.633" ry="1.837" transform="translate(156.419 287.182)" opacity="0.1"/>
      <ellipse id="Ellipse_48" data-name="Ellipse 48" cx="1.633" cy="1.837" rx="1.633" ry="1.837" transform="translate(156.419 293.302)" opacity="0.1"/>
      <ellipse id="Ellipse_49" data-name="Ellipse 49" cx="1.633" cy="1.837" rx="1.633" ry="1.837" transform="translate(156.419 299.423)" opacity="0.1"/>
      <ellipse id="Ellipse_50" data-name="Ellipse 50" cx="1.633" cy="1.837" rx="1.633" ry="1.837" transform="translate(156.419 305.543)" opacity="0.1"/>
      <ellipse id="Ellipse_51" data-name="Ellipse 51" cx="1.633" cy="1.837" rx="1.633" ry="1.837" transform="translate(156.419 311.663)" opacity="0.1"/>
      <ellipse id="Ellipse_52" data-name="Ellipse 52" cx="1.633" cy="1.837" rx="1.633" ry="1.837" transform="translate(156.419 317.79)" opacity="0.1"/>
      <ellipse id="Ellipse_53" data-name="Ellipse 53" cx="1.633" cy="1.837" rx="1.633" ry="1.837" transform="translate(156.419 323.911)" opacity="0.1"/>
      <ellipse id="Ellipse_54" data-name="Ellipse 54" cx="1.633" cy="1.837" rx="1.633" ry="1.837" transform="translate(156.419 330.031)" opacity="0.1"/>
      <ellipse id="Ellipse_55" data-name="Ellipse 55" cx="1.633" cy="1.837" rx="1.633" ry="1.837" transform="translate(156.419 336.152)" opacity="0.1"/>
      <ellipse id="Ellipse_56" data-name="Ellipse 56" cx="1.633" cy="1.837" rx="1.633" ry="1.837" transform="translate(156.419 342.272)" opacity="0.1"/>
      <ellipse id="Ellipse_57" data-name="Ellipse 57" cx="1.633" cy="1.837" rx="1.633" ry="1.837" transform="translate(156.419 348.392)" opacity="0.1"/>
      <ellipse id="Ellipse_58" data-name="Ellipse 58" cx="1.633" cy="1.837" rx="1.633" ry="1.837" transform="translate(156.419 354.513)" opacity="0.1"/>
      <ellipse id="Ellipse_59" data-name="Ellipse 59" cx="1.633" cy="1.837" rx="1.633" ry="1.837" transform="translate(164.038 274.941)" opacity="0.1"/>
      <ellipse id="Ellipse_60" data-name="Ellipse 60" cx="1.633" cy="1.837" rx="1.633" ry="1.837" transform="translate(164.038 281.061)" opacity="0.1"/>
      <ellipse id="Ellipse_61" data-name="Ellipse 61" cx="1.633" cy="1.837" rx="1.633" ry="1.837" transform="translate(164.038 287.182)" opacity="0.1"/>
      <ellipse id="Ellipse_62" data-name="Ellipse 62" cx="1.633" cy="1.837" rx="1.633" ry="1.837" transform="translate(164.038 293.302)" opacity="0.1"/>
      <ellipse id="Ellipse_63" data-name="Ellipse 63" cx="1.633" cy="1.837" rx="1.633" ry="1.837" transform="translate(164.038 299.423)" opacity="0.1"/>
      <ellipse id="Ellipse_64" data-name="Ellipse 64" cx="1.633" cy="1.837" rx="1.633" ry="1.837" transform="translate(164.038 305.543)" opacity="0.1"/>
      <ellipse id="Ellipse_65" data-name="Ellipse 65" cx="1.633" cy="1.837" rx="1.633" ry="1.837" transform="translate(164.038 311.663)" opacity="0.1"/>
      <ellipse id="Ellipse_66" data-name="Ellipse 66" cx="1.633" cy="1.837" rx="1.633" ry="1.837" transform="translate(164.038 317.79)" opacity="0.1"/>
      <ellipse id="Ellipse_67" data-name="Ellipse 67" cx="1.633" cy="1.837" rx="1.633" ry="1.837" transform="translate(164.038 323.911)" opacity="0.1"/>
      <ellipse id="Ellipse_68" data-name="Ellipse 68" cx="1.633" cy="1.837" rx="1.633" ry="1.837" transform="translate(164.038 330.031)" opacity="0.1"/>
      <ellipse id="Ellipse_69" data-name="Ellipse 69" cx="1.633" cy="1.837" rx="1.633" ry="1.837" transform="translate(164.038 336.152)" opacity="0.1"/>
      <ellipse id="Ellipse_70" data-name="Ellipse 70" cx="1.633" cy="1.837" rx="1.633" ry="1.837" transform="translate(164.038 342.272)" opacity="0.1"/>
      <ellipse id="Ellipse_71" data-name="Ellipse 71" cx="1.633" cy="1.837" rx="1.633" ry="1.837" transform="translate(164.038 348.392)" opacity="0.1"/>
      <ellipse id="Ellipse_72" data-name="Ellipse 72" cx="1.633" cy="1.837" rx="1.633" ry="1.837" transform="translate(164.038 354.513)" opacity="0.1"/>
      <path id="Pfad_79" data-name="Pfad 79" d="M236.772,350.688a1.489,1.489,0,0,1-1.735.246,1.866,1.866,0,0,1-.938-1.66,1.926,1.926,0,0,1,.435-1.243c.211.211.417.443.623.661C235.721,349.34,236.255,350,236.772,350.688Z" transform="translate(-62.442 -72.495)" opacity="0.1"/>
      <ellipse id="Ellipse_73" data-name="Ellipse 73" cx="1.633" cy="1.837" rx="1.633" ry="1.837" transform="translate(171.652 281.061)" opacity="0.1"/>
      <ellipse id="Ellipse_74" data-name="Ellipse 74" cx="1.633" cy="1.837" rx="1.633" ry="1.837" transform="translate(171.652 287.182)" opacity="0.1"/>
      <ellipse id="Ellipse_75" data-name="Ellipse 75" cx="1.633" cy="1.837" rx="1.633" ry="1.837" transform="translate(171.652 293.302)" opacity="0.1"/>
      <ellipse id="Ellipse_76" data-name="Ellipse 76" cx="1.633" cy="1.837" rx="1.633" ry="1.837" transform="translate(171.652 299.423)" opacity="0.1"/>
      <ellipse id="Ellipse_77" data-name="Ellipse 77" cx="1.633" cy="1.837" rx="1.633" ry="1.837" transform="translate(171.652 305.543)" opacity="0.1"/>
      <ellipse id="Ellipse_78" data-name="Ellipse 78" cx="1.633" cy="1.837" rx="1.633" ry="1.837" transform="translate(171.652 311.663)" opacity="0.1"/>
      <ellipse id="Ellipse_79" data-name="Ellipse 79" cx="1.633" cy="1.837" rx="1.633" ry="1.837" transform="translate(171.652 317.79)" opacity="0.1"/>
      <ellipse id="Ellipse_80" data-name="Ellipse 80" cx="1.633" cy="1.837" rx="1.633" ry="1.837" transform="translate(171.652 323.911)" opacity="0.1"/>
      <ellipse id="Ellipse_81" data-name="Ellipse 81" cx="1.633" cy="1.837" rx="1.633" ry="1.837" transform="translate(171.652 330.031)" opacity="0.1"/>
      <ellipse id="Ellipse_82" data-name="Ellipse 82" cx="1.633" cy="1.837" rx="1.633" ry="1.837" transform="translate(171.652 336.152)" opacity="0.1"/>
      <ellipse id="Ellipse_83" data-name="Ellipse 83" cx="1.633" cy="1.837" rx="1.633" ry="1.837" transform="translate(171.652 342.272)" opacity="0.1"/>
      <ellipse id="Ellipse_84" data-name="Ellipse 84" cx="1.633" cy="1.837" rx="1.633" ry="1.837" transform="translate(171.652 348.392)" opacity="0.1"/>
      <path id="Pfad_80" data-name="Pfad 80" d="M237.2,435.918a29.333,29.333,0,0,1-1.991,2.525,1.847,1.847,0,0,1-1.117-1.867,1.778,1.778,0,0,1,1.328-1.683A1.6,1.6,0,0,1,237.2,435.918Z" transform="translate(-62.439 -80.361)" opacity="0.1"/>
      <rect id="Rechteck_84" data-name="Rechteck 84" width="7.613" height="82.017" rx="3.807" transform="translate(149.352 334.314)" fill="#54576b"/>
      <rect id="Rechteck_85" data-name="Rechteck 85" width="52.225" height="11.018" rx="5.051" transform="translate(127.046 405.314)" fill="#54576b"/>
      <rect id="Rechteck_86" data-name="Rechteck 86" width="7.613" height="82.017" rx="3.807" transform="translate(149.352 334.314)" opacity="0.1"/>
      <rect id="Rechteck_87" data-name="Rechteck 87" width="52.225" height="11.018" rx="5.051" transform="translate(127.046 405.314)" opacity="0.1"/>
      <rect id="Rechteck_88" data-name="Rechteck 88" width="7.613" height="82.017" rx="3.807" transform="translate(150.439 334.314)" fill="#54576b"/>
      <rect id="Rechteck_89" data-name="Rechteck 89" width="52.225" height="11.018" rx="5.051" transform="translate(128.133 405.314)" fill="#54576b"/>
      <path id="Pfad_81" data-name="Pfad 81" d="M244.232,417.881c-8.337,20.409-26.474,33.488-46.438,33.488s-38.1-13.079-46.438-33.488c-5.41-8.731-10.139-26.141-10.139-24.072,0,35.156,25.331,63.656,56.578,63.656s56.578-28.5,56.578-63.656C254.371,391.741,249.642,409.15,244.232,417.881Z" transform="translate(-44.635 -76.627)" fill="#54576b"/>
      <path id="Pfad_82" data-name="Pfad 82" d="M199.084,323.822c-18.525.005-35.872,10.218-46.438,27.337a63.271,63.271,0,0,0-4.7,24.072q0,3.073.288,6.125c2.649-29.357,24.619-51.693,50.845-51.694s48.2,22.335,50.849,51.692q.288-3.05.288-6.122a63.27,63.27,0,0,0-4.7-24.072c-10.565-17.117-27.91-27.329-46.432-27.337Z" transform="translate(-45.925 -70.302)" fill="#54576b"/>
      <ellipse id="Ellipse_85" data-name="Ellipse 85" cx="2.174" cy="2.446" rx="2.174" ry="2.446" transform="translate(152.072 339.826)" opacity="0.1"/>
      <ellipse id="Ellipse_86" data-name="Ellipse 86" cx="0.817" cy="0.919" rx="0.817" ry="0.919" transform="translate(255.429 401.03)" opacity="0.2"/>
      <path id="Pfad_83" data-name="Pfad 83" d="M282.918,499.516a19.816,19.816,0,0,1-9.4-2.32c-10.962-5.8-16.367-5.07-24.544-3.966a102.5,102.5,0,0,1-23.134.945,14.109,14.109,0,0,1-10.985-6.609c-12.125-17.714-4.012-64.35-3.66-66.326a.547.547,0,0,1,.633-.441.611.611,0,0,1,.436.679c-.082.476-8.371,48.064,3.454,65.335a13.1,13.1,0,0,0,10.192,6.154,101.468,101.468,0,0,0,22.911-.945c8.365-1.137,13.893-1.89,25.137,4.065,17.935,9.5,38.954-14.66,39.16-14.9a.5.5,0,0,1,.738.024.672.672,0,0,1,.044.829C313.742,482.245,298.709,499.516,282.918,499.516Z" transform="translate(-57.479 -79.086)" fill="#dfe6f5"/>
      <path id="Pfad_84" data-name="Pfad 84" d="M300.189,146.46c-8.982-18.209-27.217-30.695-48.171-30.695-29.843,0-54.128,25.262-54.128,56.313h-3.836c0-33.411,25.995-60.6,57.935-60.6,18.493,0,34.989,9.108,45.6,23.265.869,3.173,1.533,6.418,2.191,9.657C299.93,145.1,300.065,145.779,300.189,146.46Z" transform="translate(-54.764 -51.066)" fill="#535461"/>
      <path id="Pfad_85" data-name="Pfad 85" d="M178.923,113.379h5.011v39h-5.011c-7.968,0-14.428-7.268-14.428-16.233v-6.491a17.325,17.325,0,0,1,4.213-11.5A13.668,13.668,0,0,1,178.923,113.379Z" transform="translate(-31.538 -10.259)" fill="#dfe6f5"/>
      <rect id="Rechteck_90" data-name="Rechteck 90" width="8.506" height="38.963" rx="4.253" transform="translate(148.142 103.153)" fill="#535461"/>
      <path id="Pfad_86" data-name="Pfad 86" d="M600.794,466.415s-9.329-3.556-13.817,5.691a18.731,18.731,0,0,0,.2,16.24c2.937,5.995,9.023,13.781,20.561,13.087,9.763-.588,13.012-8.969,13.893-16.768a18.341,18.341,0,0,0-5.574-15.63,13.974,13.974,0,0,0-14.758-2.811Z" transform="translate(-129.757 -83.112)" fill="#6c63ff"/>
      <path id="Pfad_87" data-name="Pfad 87" d="M589.153,489.15a18.731,18.731,0,0,1-.2-16.24c4.488-9.253,13.817-5.691,13.817-5.691l.476-.192a13.61,13.61,0,0,1,10.962.278,13.709,13.709,0,0,0-12.924-1.388l-.476.192s-9.329-3.556-13.817,5.691a18.731,18.731,0,0,0,.2,16.24c1.944,3.966,5.24,8.665,10.574,11.236a24.951,24.951,0,0,1-8.612-10.126Z" transform="translate(-129.76 -83.083)" fill="#fff" opacity="0.1"/>
      <path id="Pfad_88" data-name="Pfad 88" d="M598.527,471.426s3.46,3.06,11.855,0" transform="translate(-132.307 -83.674)" opacity="0.2"/>
      <path id="Pfad_89" data-name="Pfad 89" d="M597.611,446.977s5.927,18.064,5.434,22.79l4.7-.555s-7.937-15.843-5.933-22.234Z" transform="translate(-132.132 -81.459)" fill="#6c63ff"/>
      <path id="Pfad_90" data-name="Pfad 90" d="M597.611,446.977s5.927,18.064,5.434,22.79l4.7-.555s-7.937-15.843-5.933-22.234Z" transform="translate(-132.132 -81.459)" opacity="0.2"/>
      <path id="Pfad_91" data-name="Pfad 91" d="M623.2,448.366s-9.329-5.367-13.511-.932-4.817,15.77-4.817,15.77S620.093,465.564,623.2,448.366Z" transform="translate(-133.524 -81.341)" fill="#6c63ff"/>
      <path id="Pfad_92" data-name="Pfad 92" d="M623.2,448.366s-9.329-5.367-13.511-.932-4.817,15.77-4.817,15.77S620.093,465.564,623.2,448.366Z" transform="translate(-133.524 -81.341)" fill="#fff" opacity="0.1"/>
      <path id="Pfad_93" data-name="Pfad 93" d="M604.879,463.472s2.45-13.16,18.323-14.838" transform="translate(-133.525 -81.609)" fill="none" stroke="#6c63ff" stroke-miterlimit="10" stroke-width="0.727"/>
    </g>
  </g>
</svg>
