<svg xmlns="http://www.w3.org/2000/svg" xmlns:xlink="http://www.w3.org/1999/xlink" width="316" height="265" viewBox="0 0 816 765">
  <defs>
    <clipPath id="clip-path">
      <rect id="Rechteck_92" data-name="Rechteck 92" width="816" height="765" transform="translate(1015 3152)" fill="#fff" stroke="#707070" stroke-width="1"/>
    </clipPath>
  </defs>
  <g id="Gruppe_maskieren_2" data-name="Gruppe maskieren 2" transform="translate(-1015 -3152)" clip-path="url(#clip-path)">
    <g id="undraw_App_installation_re_h36x" transform="translate(1015 3173.898)">
      <path id="Pfad_97" data-name="Pfad 97" d="M816.374,255.992h-4.421V147.547c0-34.664-31.384-62.765-70.1-62.765h-256.6c-38.715,0-70.1,28.1-70.1,62.765V742.484c0,34.664,31.384,62.765,70.1,62.765h256.6c38.715,0,70.1-28.1,70.1-62.765v-409.3h4.421Z" transform="translate(-207.786 -84.782)" fill="#e6e6e6"/>
      <path id="Pfad_98" data-name="Pfad 98" d="M795.042,148.016V742.078c0,25.887-23.438,46.874-52.351,46.874H484.858c-28.912,0-52.351-20.986-52.352-46.873V148.016c0-25.887,23.438-46.873,52.351-46.874h31.279a20.309,20.309,0,0,0,2.4,20.827,25.784,25.784,0,0,0,20.634,9.851h147a25.785,25.785,0,0,0,20.634-9.851,20.31,20.31,0,0,0,2.4-20.827h33.489c28.912,0,52.35,20.986,52.352,46.873Z" transform="translate(-205.795 -84.813)" fill="#fff"/>
      <path id="Pfad_99" data-name="Pfad 99" d="M536.589,264.238h-39.6c-6.793-.007-12.3-4.936-12.3-11.017V217.769c.008-6.082,5.512-11.011,12.3-11.017h39.6c6.793.007,12.3,4.936,12.3,11.017v35.452C548.886,259.3,543.382,264.231,536.589,264.238Z" transform="translate(-199.81 -85.017)" fill="#6c63ff"/>
      <path id="Pfad_100" data-name="Pfad 100" d="M618.224,264.238H578.629c-6.793-.007-12.3-4.935-12.3-11.017V217.769c.008-6.082,5.512-11.011,12.3-11.017h39.595c6.793.007,12.3,4.936,12.3,11.017v35.452c-.008,6.082-5.512,11.01-12.3,11.017Z" transform="translate(-190.447 -85.017)" fill="#6c63ff"/>
      <path id="Pfad_101" data-name="Pfad 101" d="M699.858,264.238H660.263c-6.793-.007-12.3-4.935-12.3-11.017V217.769c.008-6.082,5.512-11.011,12.3-11.017h39.595c6.793.007,12.3,4.936,12.3,11.017v35.452C712.155,259.3,706.651,264.231,699.858,264.238Z" transform="translate(-181.084 -85.017)" fill="#e6e6e6"/>
      <path id="Pfad_102" data-name="Pfad 102" d="M536.589,355h-39.6c-6.793-.007-12.3-4.936-12.3-11.017V308.533c.008-6.082,5.512-11.011,12.3-11.017h39.6c6.793.007,12.3,4.936,12.3,11.017v35.452C548.886,350.067,543.382,355,536.589,355Z" transform="translate(-199.81 -85.193)" fill="#e6e6e6"/>
      <path id="Pfad_103" data-name="Pfad 103" d="M618.224,355H578.629c-6.793-.007-12.3-4.936-12.3-11.017V308.533c.008-6.082,5.512-11.011,12.3-11.017h39.595c6.793.007,12.3,4.936,12.3,11.017v35.452c-.008,6.082-5.512,11.011-12.3,11.017Z" transform="translate(-190.447 -85.193)" fill="#e6e6e6"/>
      <path id="Pfad_104" data-name="Pfad 104" d="M699.858,355H660.263c-6.793-.007-12.3-4.936-12.3-11.017V308.533c.008-6.082,5.512-11.011,12.3-11.017h39.595c6.793.007,12.3,4.936,12.3,11.017v35.452C712.155,350.067,706.651,355,699.858,355Z" transform="translate(-181.084 -85.193)" fill="#e6e6e6"/>
      <path id="Pfad_105" data-name="Pfad 105" d="M536.589,445.75h-39.6c-6.793-.007-12.3-4.935-12.3-11.017V399.281c.008-6.082,5.512-11.011,12.3-11.017h39.6c6.793.007,12.3,4.936,12.3,11.017v35.452C548.886,440.815,543.382,445.744,536.589,445.75Z" transform="translate(-199.81 -85.368)" fill="#e6e6e6"/>
      <path id="Pfad_106" data-name="Pfad 106" d="M618.224,445.75H578.629c-6.793-.007-12.3-4.935-12.3-11.017V399.281c.008-6.082,5.512-11.011,12.3-11.017h39.595c6.793.007,12.3,4.936,12.3,11.017v35.452c-.008,6.082-5.512,11.01-12.3,11.017Z" transform="translate(-190.447 -85.368)" fill="#e6e6e6"/>
      <path id="Pfad_107" data-name="Pfad 107" d="M699.858,445.75H660.263c-6.793-.007-12.3-4.935-12.3-11.017V399.281c.008-6.082,5.512-11.011,12.3-11.017h39.595c6.793.007,12.3,4.936,12.3,11.017v35.452C712.155,440.815,706.651,445.744,699.858,445.75Z" transform="translate(-181.084 -85.368)" fill="#e6e6e6"/>
      <path id="Pfad_108" data-name="Pfad 108" d="M536.589,536.515h-39.6c-6.793-.007-12.3-4.936-12.3-11.017V490.046c.008-6.082,5.512-11.011,12.3-11.017h39.6c6.793.007,12.3,4.936,12.3,11.017V525.5c-.008,6.082-5.512,11.011-12.3,11.018Z" transform="translate(-199.81 -85.543)" fill="#e6e6e6"/>
      <path id="Pfad_109" data-name="Pfad 109" d="M618.224,536.515H578.629c-6.793-.007-12.3-4.936-12.3-11.017V490.046c.008-6.082,5.512-11.011,12.3-11.017h39.595c6.793.007,12.3,4.936,12.3,11.017V525.5c-.008,6.082-5.512,11.011-12.3,11.018Z" transform="translate(-190.447 -85.543)" fill="#e6e6e6"/>
      <path id="Pfad_110" data-name="Pfad 110" d="M699.858,536.515H660.263c-6.793-.007-12.3-4.936-12.3-11.017V490.046c.008-6.082,5.512-11.011,12.3-11.017h39.595c6.793.007,12.3,4.936,12.3,11.017V525.5c-.008,6.082-5.512,11.011-12.3,11.018Z" transform="translate(-181.084 -85.543)" fill="#e6e6e6"/>
      <path id="Pfad_111" data-name="Pfad 111" d="M641.128,525.987H601.533c-7.1-.007-12.85-5.157-12.858-11.513V479.023c.008-6.355,5.76-11.5,12.858-11.512h39.595c7.1.007,12.849,5.157,12.858,11.512v35.452c-.008,6.355-5.76,11.505-12.858,11.513Z" transform="translate(-187.884 -85.521)" fill="#6c63ff"/>
      <path id="Pfad_112" data-name="Pfad 112" d="M469.38,617.59a10.53,10.53,0,0,0,6.025-6.778,9.4,9.4,0,0,0-1.936-8.488l8.55-74.851H463.541l-6.8,73.089a9.558,9.558,0,0,0-2.131,13.539c3.223,4.345,9.566,5.844,14.765,3.49Z" transform="translate(-203.48 -85.637)" fill="#ffb8b8"/>
      <ellipse id="Ellipse_87" data-name="Ellipse 87" cx="26.143" cy="23.408" rx="26.143" ry="23.408" transform="translate(256.723 353.712)" fill="#ffb8b8"/>
      <path id="Pfad_113" data-name="Pfad 113" d="M489.767,571a4.73,4.73,0,0,1-4.608-3.144c-2.094-6.814-7.544-18.334-16.2-34.242a25.68,25.68,0,0,1-.806-23.19,30.466,30.466,0,0,1,18.8-15.971h0a35.051,35.051,0,0,1,24.606,1.332,29.508,29.508,0,0,1,16.082,16.728c6.707,18.826,6.383,38.993,5.932,46.788a4.469,4.469,0,0,1-3.762,3.969L490.794,570.9a5.3,5.3,0,0,1-1.027.1Z" transform="translate(-201.98 -85.57)" fill="#ccc"/>
      <path id="Pfad_114" data-name="Pfad 114" d="M292.072,708.985h13.05l6.208-45.067H292.07Z" transform="translate(33.498 -1.282)" fill="#ffb8b8"/>
      <path id="Pfad_115" data-name="Pfad 115" d="M0,0H41.012V14.188H15.846C7.094,14.188,0,7.836,0,0Z" transform="translate(363.783 718.552) rotate(179.997)" fill="#2f2e41"/>
      <path id="Pfad_116" data-name="Pfad 116" d="M175.013,693.823l11.436,5.629,29.691-36.812-16.877-8.308Z" transform="translate(20.073 -1.264)" fill="#ffb8b8"/>
      <path id="Pfad_117" data-name="Pfad 117" d="M-.016.548,40-1.263l-.7,14.573L14.744,14.421C6.206,14.807-.4,8.6-.016.548h0Z" transform="matrix(-0.876, -0.482, 0.482, -0.876, 222.458, 719.023)" fill="#2f2e41"/>
      <path id="Pfad_118" data-name="Pfad 118" d="M532.774,768.38a4.642,4.642,0,0,1-4.745-3.737l-16.32-112.6a2.515,2.515,0,0,0-2.143-2.034,2.775,2.775,0,0,0-2.826,1.19L438.726,761.686a5.088,5.088,0,0,1-5.9,1.939L418,758.567a4.6,4.6,0,0,1-2.687-2.3,3.877,3.877,0,0,1-.044-3.327l47.115-103.63a3.034,3.034,0,0,0,.241-.821c6.381-44.224,22.618-66.713,27.442-72.553a3.039,3.039,0,0,0,.528-3.024l-.663-1.781a3.949,3.949,0,0,1,.922-4.172c17.383-17.728,47.681-8.054,47.985-7.955l.152.05.095.116c33.973,41.717,21.412,177.211,18.549,203.949a4.563,4.563,0,0,1-4.4,3.86l-20.089,1.385C533.021,768.376,532.9,768.38,532.774,768.38Z" transform="translate(-207.813 -85.692)" fill="#2f2e41"/>
      <path id="Pfad_119" data-name="Pfad 119" d="M581.152,489.859a9.047,9.047,0,0,0-.255,1.563l-45.724,23.618-11.114-5.729L512.212,523.2l18.574,11.853A9.32,9.32,0,0,0,541,534.83l47.149-33.3a12.056,12.056,0,0,0,12.307-2.814,9.189,9.189,0,0,0,1.415-11.3,11.576,11.576,0,0,0-11.305-5.184,10.8,10.8,0,0,0-9.415,7.634Z" transform="translate(-196.654 -85.549)" fill="#ffb8b8"/>
      <path id="Pfad_120" data-name="Pfad 120" d="M535.956,516.188l-14.778,17.149a4.978,4.978,0,0,1-3.53,1.662,5.1,5.1,0,0,1-3.712-1.307l-16.73-15.555c-5.8-4.034-6.856-11.516-2.351-16.712s12.861-6.139,18.665-2.105L534.5,509.825a4.356,4.356,0,0,1,2.354,2.883,3.951,3.951,0,0,1-.9,3.479Z" transform="translate(-198.965 -85.578)" fill="#ccc"/>
      <path id="Pfad_121" data-name="Pfad 121" d="M482.911,546l-23.806-3.849a4.819,4.819,0,0,1-3.274-2.04,3.9,3.9,0,0,1-.413-3.552l7.718-20.459c1.327-6.47,8.26-10.752,15.486-9.564s12.008,7.4,10.682,13.865l-.753,21.514a4.149,4.149,0,0,1-1.775,3.2,5.209,5.209,0,0,1-3.864.886Z" transform="translate(-203.196 -85.596)" fill="#ccc"/>
      <path id="Pfad_122" data-name="Pfad 122" d="M496.275,457.181c6.719,4.118,15.542,8.35,22.4,3.965a10.5,10.5,0,0,0,4.1-12.89c-3.286-8.414-12.314-12.118-20.948-14.957-11.224-3.691-23.444-6.628-35.031-3.984S444.974,442,447.066,452.543c1.682,8.477,10.612,15.53,9.344,24.064-1.276,8.589-12.064,13.11-21.588,14.645s-20.181,2.028-27.026,8.153c-8.731,7.814-6.551,21.78,1.665,30.03s20.614,11.989,32.628,14.532c15.918,3.368,33.134,5.138,48.251-.452s26.882-20.637,22.5-34.747c-1.85-5.96-6.207-11-10.419-15.9s-8.476-10.032-10.082-16.048c-1.339-5.014-.348-10.835,3.365-14.6a3.891,3.891,0,0,0,.633-4.943Z" transform="translate(-209.272 -85.445)" fill="#2f2e41"/>
      <path id="Pfad_123" data-name="Pfad 123" d="M497.993,710.544H484.438l-6.448-46.813H498Z" transform="translate(54.822 -1.282)" fill="#ffb8b8"/>
      <path id="Pfad_124" data-name="Pfad 124" d="M476.783,707.159h26.141V721.9h-42.6C460.323,713.757,467.692,707.159,476.783,707.159Z" transform="translate(52.796 -1.366)" fill="#2f2e41"/>
      <path id="Pfad_125" data-name="Pfad 125" d="M543.619,710.544H530.064l-6.448-46.813h20.005Z" transform="translate(60.055 -1.282)" fill="#ffb8b8"/>
      <path id="Pfad_126" data-name="Pfad 126" d="M522.409,707.159H548.55V721.9h-42.6c0-8.139,7.369-14.737,16.459-14.737Z" transform="translate(58.029 -1.366)" fill="#2f2e41"/>
      <path id="Pfad_127" data-name="Pfad 127" d="M770.351,655.472a10.583,10.583,0,0,1-5.358-7.613,9.942,9.942,0,0,1,3.078-8.566l-8.925-113.407,25.709,2.232.706,111.06a9.875,9.875,0,0,1,.478,14.2,12.93,12.93,0,0,1-15.688,2.1Z" transform="translate(-168.332 -85.634)" fill="#ffb8b8"/>
      <path id="Pfad_128" data-name="Pfad 128" d="M726.613,771.507l-14.922-.637a4.711,4.711,0,0,1-4.739-4.418l-1.041-135.185a4.27,4.27,0,0,1,1.707-3.39,5.383,5.383,0,0,1,3.983-1.051l59.7,7.759a4.623,4.623,0,0,1,4.261,4.376l7.678,125.263a4.227,4.227,0,0,1-1.444,3.172,5.284,5.284,0,0,1-3.531,1.317H762.174a4.819,4.819,0,0,1-4.915-3.763l-9.925-56.494a3.775,3.775,0,0,0-3.894-2.927,3.737,3.737,0,0,0-3.771,3.053l-7.879,59a4.835,4.835,0,0,1-4.941,3.926Q726.732,771.513,726.613,771.507Z" transform="translate(-174.438 -85.829)" fill="#2f2e41"/>
      <path id="Pfad_129" data-name="Pfad 129" d="M737.286,638.725c-13.156-6.545-23.436-8.265-28.393-8.708a5.059,5.059,0,0,1-3.376-1.656,4.106,4.106,0,0,1-1.029-3.367l14.3-95.086c1.674-11.311,9.777-21.036,21.409-25.7a39.323,39.323,0,0,1,34.712,2.436q.735.438,1.443.894c11.946,7.837,17.457,21.338,13.971,34.226-8.772,32.129-11.785,84.8-12.3,95.035a4.5,4.5,0,0,1-3.226,3.965,55.083,55.083,0,0,1-16.834,2.684,46.087,46.087,0,0,1-20.681-4.726Z" transform="translate(-174.606 -85.586)" fill="#6c63ff"/>
      <path id="Pfad_130" data-name="Pfad 130" d="M764.774,563.975a4.339,4.339,0,0,1-2.055-3.366l-1.884-30.566c-.386-6.272,4.579-11.793,11.5-12.793s13.578,2.843,15.413,8.906l8.275,27.328a4.43,4.43,0,0,1-3.5,5.465l-23.54,5.714a5.432,5.432,0,0,1-4.215-.688Z" transform="translate(-168.141 -85.617)" fill="#6c63ff"/>
      <ellipse id="Ellipse_88" data-name="Ellipse 88" cx="27.155" cy="24.314" rx="27.155" ry="24.314" transform="translate(547.489 357.086)" fill="#ffb8b8"/>
      <path id="Pfad_131" data-name="Pfad 131" d="M658.716,514.767a9.388,9.388,0,0,1,.265,1.624l47.5,24.533,11.544-5.951L730.327,549.4l-24.7,15.761-54.185-38.274a12.522,12.522,0,0,1-12.781-2.924,9.544,9.544,0,0,1-1.469-11.738,12.023,12.023,0,0,1,11.741-5.384,11.22,11.22,0,0,1,9.779,7.927Z" transform="translate(-182.477 -85.597)" fill="#ffb8b8"/>
      <path id="Pfad_132" data-name="Pfad 132" d="M700.73,538.844a4.174,4.174,0,0,1,1.43-3.617l24.173-21.649a14.91,14.91,0,0,1,18.319-.861c5.453,3.952,6.693,10.953,2.874,16.222L730.311,552.69A5.343,5.343,0,0,1,723.429,554L702.97,542.114A4.4,4.4,0,0,1,700.73,538.844Z" transform="translate(-175.035 -85.603)" fill="#6c63ff"/>
      <path id="Pfad_133" data-name="Pfad 133" d="M767.075,486.089c-5.066,4.832-14.474,2.238-15.134-4.363a7.154,7.154,0,0,1,.011-1.54c.341-2.924,2.227-5.578,1.776-8.666a4.283,4.283,0,0,0-.929-2.127c-4.037-4.84-13.513,2.165-17.323-2.217-2.336-2.687.41-6.917-1.383-9.92-2.366-3.963-9.375-2.008-13.769-4.179-4.89-2.415-4.6-9.133-1.379-13.219,3.926-4.983,10.808-7.642,17.605-8.025s13.547,1.262,19.893,3.476c7.21,2.516,14.36,5.993,18.8,11.669,5.4,6.9,5.915,16.184,3.216,24.256C776.814,476.145,771.212,482.143,767.075,486.089Z" transform="translate(-173.214 -85.452)" fill="#2f2e41"/>
      <path id="Pfad_134" data-name="Pfad 134" d="M1043.971,807.9H230.228a1,1,0,1,1,0-1.98h813.744a1,1,0,1,1,0,1.98Z" transform="translate(-229.122 -86.174)" fill="#ccc"/>
    </g>
  </g>
</svg>
